<svg width="428" height="425" viewBox="0 0 428 425" fill="none" xmlns="http://www.w3.org/2000/svg">
<path d="M373.883 31.6614C363.357 30.2822 355.097 39.9527 360.844 49.8611C367.336 61.0615 388.706 51.3275 399.51 57.9621C402.943 60.0706 413.239 79.5623 413.358 82.9946C413.794 95.3205 386.637 77.5886 382.793 95.6614C378.251 117.016 409.141 109.929 419.795 116.937C427.381 121.922 432.089 148.287 423.061 150.998C413.533 153.867 386.851 133.44 382.793 152.733C377.95 175.737 420.04 168.603 422.228 187.429C423.512 198.494 418.558 217.93 403.458 212.54C396.348 210.004 366.797 181.158 361.565 200.476C355.47 222.988 412.439 229.717 391.338 257.199C369.365 285.822 353.005 223.614 332.387 234.711C311.73 245.824 355.541 273.536 353.742 286.131C352.188 297.031 327.774 300.677 319.792 297.792C310.795 294.542 292.905 248.155 282.14 245.88C273.738 244.104 266.097 249.724 266.921 258.665C267.698 267.092 295.893 294.264 278.312 297.95C275.347 298.568 253.755 298.568 250.608 298.014C246.526 297.292 246.066 295.81 243.696 293.036C236.459 284.554 221.438 247.79 212.385 245.88C203.333 243.969 195.961 250.129 197.19 259.482C198.292 267.868 224.283 294.89 207.035 298.014C171.151 304.505 125.929 280.274 118.66 336.466C113.199 378.675 144.051 368.553 164.867 391.112C174.3 401.338 172.944 422.906 156.552 424.856H12.0964C-11.8342 421.884 5.00207 391.049 17.6689 389.17C31.382 387.133 78.9976 396.812 79.9171 376.052C80.9714 352.43 29.7967 367.332 24.0261 360.603C21.9097 358.137 21.8779 328.27 24.7712 325.733C28.8693 322.142 60.9089 325.456 68.6375 323.625C77.4202 321.54 81.6609 311.402 77.0634 303.602C68.8831 289.738 25.7144 303.499 22.9797 293.48C22.0206 289.952 22.3456 262.161 24.4145 260.386C28.0528 257.271 61.8126 260.822 70.1911 257.81C78.7915 254.718 81.6054 244.675 75.9062 237.375C66.7667 225.683 25.6035 238.112 22.9797 228.473C22.1554 225.437 22.4486 198.629 23.9309 196.473C29.6143 188.205 78.3635 204.709 77.5629 180.279C76.8336 158.147 32.103 172.78 24.7315 166.478C22.0919 164.798 21.9731 135.834 23.3999 132.536C27.712 122.572 78.9659 139.829 78.9183 116.088C78.8708 92.5859 31.6753 107.219 24.4145 101.004C22.3377 99.2284 22.0206 72.1747 22.9797 68.7028C23.7803 65.7858 25.2943 65.4291 27.9498 64.9535C44.136 62.0602 77.0872 67.7754 93.5589 64.7712C103.697 62.9243 108.667 51.5336 102.072 43.171C94.8668 34.0394 65.5856 39.5168 54.9163 38.0107C42.1188 36.2001 32.4963 14.0456 24.2253 2.74628C23.4158 1.64032 24.1973 -0.00870944 25.5678 -0.000665456L289.433 1.54798C318.801 3.87852 357.314 11.4123 380.812 30.2735C381.386 30.7342 381.055 31.6415 380.319 31.6436L373.883 31.6614Z" fill="#41ED98"/>
</svg>
